<svg width="75" height="91" viewBox="0 0 75 91" fill="none" xmlns="http://www.w3.org/2000/svg">
<mask id="mask0_588_144319" style="mask-type:luminance" maskUnits="userSpaceOnUse" x="25" y="0" width="9" height="35">
<path fill-rule="evenodd" clip-rule="evenodd" d="M25.5059 0.0449219H33.7596V34.6188H25.5059V0.0449219Z" fill="white"/>
</mask>
<g mask="url(#mask0_588_144319)">
<path fill-rule="evenodd" clip-rule="evenodd" d="M29.6327 34.6189C27.3527 34.6189 25.5059 32.7721 25.5059 30.4921V4.1727C25.5059 1.8927 27.3527 0.0439453 29.6327 0.0439453C31.9127 0.0439453 33.7596 1.8927 33.7596 4.1727V30.4921C33.7596 32.7721 31.9127 34.6189 29.6327 34.6189Z" fill="#C076F0"/>
</g>
<path fill-rule="evenodd" clip-rule="evenodd" d="M29.6327 90.0447C27.3527 90.0447 25.5059 88.1979 25.5059 85.9179V59.5985C25.5059 57.3185 27.3527 55.4697 29.6327 55.4697C31.9127 55.4697 33.7596 57.3185 33.7596 59.5985V85.9179C33.7596 88.1979 31.9127 90.0447 29.6327 90.0447Z" fill="#C076F0"/>
<path fill-rule="evenodd" clip-rule="evenodd" d="M70.5051 49.1721H44.1857C41.9076 49.1721 40.0588 47.3253 40.0588 45.0453C40.0588 42.7653 41.9076 40.9165 44.1857 40.9165H70.5051C72.7851 40.9165 74.632 42.7653 74.632 45.0453C74.632 47.3253 72.7851 49.1721 70.5051 49.1721Z" fill="#C076F0"/>
<path fill-rule="evenodd" clip-rule="evenodd" d="M15.0791 49.1721H-11.2403C-13.5184 49.1721 -15.3672 47.3253 -15.3672 45.0453C-15.3672 42.7653 -13.5184 40.9165 -11.2403 40.9165H15.0791C17.3591 40.9165 19.2059 42.7653 19.2059 45.0453C19.2059 47.3253 17.3591 49.1721 15.0791 49.1721Z" fill="#C076F0"/>
</svg>
