<svg width="47" height="47" viewBox="0 0 47 47" fill="none" xmlns="http://www.w3.org/2000/svg">
<mask id="mask0_588_144251" style="mask-type:luminance" maskUnits="userSpaceOnUse" x="21" y="0" width="5" height="18">
<path fill-rule="evenodd" clip-rule="evenodd" d="M21.5234 0.0449219H25.742V17.716H21.5234V0.0449219Z" fill="white"/>
</mask>
<g mask="url(#mask0_588_144251)">
<path fill-rule="evenodd" clip-rule="evenodd" d="M23.6327 17.7161C22.4674 17.7161 21.5234 16.7721 21.5234 15.6068V2.15468C21.5234 0.98935 22.4674 0.0444336 23.6327 0.0444336C24.7981 0.0444336 25.742 0.98935 25.742 2.15468V15.6068C25.742 16.7721 24.7981 17.7161 23.6327 17.7161Z" fill="#C076F0"/>
</g>
<path fill-rule="evenodd" clip-rule="evenodd" d="M23.6327 46.0447C22.4674 46.0447 21.5234 45.1008 21.5234 43.9354V30.4833C21.5234 29.318 22.4674 28.373 23.6327 28.373C24.7981 28.373 25.742 29.318 25.742 30.4833V43.9354C25.742 45.1008 24.7981 46.0447 23.6327 46.0447Z" fill="#C076F0"/>
<path fill-rule="evenodd" clip-rule="evenodd" d="M44.5231 25.1546H31.071C29.9066 25.1546 28.9617 24.2106 28.9617 23.0453C28.9617 21.88 29.9066 20.9351 31.071 20.9351H44.5231C45.6884 20.9351 46.6324 21.88 46.6324 23.0453C46.6324 24.2106 45.6884 25.1546 44.5231 25.1546Z" fill="#C076F0"/>
<path fill-rule="evenodd" clip-rule="evenodd" d="M16.1942 25.1546H2.7421C1.57773 25.1546 0.632812 24.2106 0.632812 23.0453C0.632812 21.88 1.57773 20.9351 2.7421 20.9351H16.1942C17.3596 20.9351 18.3035 21.88 18.3035 23.0453C18.3035 24.2106 17.3596 25.1546 16.1942 25.1546Z" fill="#C076F0"/>
</svg>
