<svg width="31" height="31" viewBox="0 0 31 31" fill="none" xmlns="http://www.w3.org/2000/svg">
<mask id="mask0_588_144311" style="mask-type:luminance" maskUnits="userSpaceOnUse" x="14" y="0" width="4" height="12">
<path fill-rule="evenodd" clip-rule="evenodd" d="M14.2571 0.0449219H17.0083V11.5695H14.2571V0.0449219Z" fill="white"/>
</mask>
<g mask="url(#mask0_588_144311)">
<path fill-rule="evenodd" clip-rule="evenodd" d="M15.6327 11.5694C14.8727 11.5694 14.2571 10.9538 14.2571 10.1938V1.42068C14.2571 0.660684 14.8727 0.0444336 15.6327 0.0444336C16.3927 0.0444336 17.0083 0.660684 17.0083 1.42068V10.1938C17.0083 10.9538 16.3927 11.5694 15.6327 11.5694Z" fill="#616CE4"/>
</g>
<path fill-rule="evenodd" clip-rule="evenodd" d="M15.6327 30.045C14.8727 30.045 14.2571 29.4294 14.2571 28.6694V19.8963C14.2571 19.1363 14.8727 18.52 15.6327 18.52C16.3927 18.52 17.0083 19.1363 17.0083 19.8963V28.6694C17.0083 29.4294 16.3927 30.045 15.6327 30.045Z" fill="#616CE4"/>
<path fill-rule="evenodd" clip-rule="evenodd" d="M29.2569 16.4208H20.4838C19.7244 16.4208 19.1082 15.8052 19.1082 15.0452C19.1082 14.2852 19.7244 13.6689 20.4838 13.6689H29.2569C30.0169 13.6689 30.6325 14.2852 30.6325 15.0452C30.6325 15.8052 30.0169 16.4208 29.2569 16.4208Z" fill="#616CE4"/>
<path fill-rule="evenodd" clip-rule="evenodd" d="M10.7816 16.4208H2.00844C1.24906 16.4208 0.632812 15.8052 0.632812 15.0452C0.632812 14.2852 1.24906 13.6689 2.00844 13.6689H10.7816C11.5416 13.6689 12.1572 14.2852 12.1572 15.0452C12.1572 15.8052 11.5416 16.4208 10.7816 16.4208Z" fill="#616CE4"/>
</svg>
