<svg width="170" height="147" viewBox="0 0 170 147" fill="none" xmlns="http://www.w3.org/2000/svg">
<path fill-rule="evenodd" clip-rule="evenodd" d="M0 73.2693V146.476V146.538C10.127 134.192 26.951 129.597 41.948 135.082L51.361 138.525C97.136 155.267 146.631 121.868 146.539 73.1283C146.537 72.2273 146.519 71.3233 146.485 70.4153C145.043 32.4403 114.1 1.49633 76.124 0.0543253C34.358 -1.53267 0 31.8563 0 73.2693Z" fill="#21DED7"/>
<path fill-rule="evenodd" clip-rule="evenodd" d="M96.6705 97.1718C98.5755 98.0038 100.328 98.9958 102.209 99.5438C106.554 100.811 110.954 100.742 115.269 99.3178C118.888 98.1238 121.048 95.2378 121.263 91.4378C121.339 90.0938 121.276 88.7408 121.276 87.3918C121.126 87.2998 120.977 87.2088 120.828 87.1168C120.653 87.4218 120.54 87.7918 120.294 88.0218C115.025 92.9598 108.829 94.5768 101.916 92.6068C96.5045 91.0648 93.6145 87.0328 92.5475 81.6558C92.2685 80.2498 92.1905 78.7858 92.1835 77.3478C92.1485 70.1488 92.1815 62.9488 92.1465 55.7498C92.1425 54.9688 92.4105 54.5288 93.1155 54.4248C94.3995 54.2358 95.7075 53.9438 96.9835 54.0278C99.2475 54.1778 100.502 55.6728 100.511 57.9538C100.528 62.5078 100.512 67.0628 100.518 71.6168C100.521 73.5528 100.452 75.4948 100.577 77.4228C100.792 80.7378 102.036 83.5298 105.165 85.1138C109.76 87.4398 118.43 86.2988 120.681 79.1418C121.042 77.9938 121.165 76.7298 121.174 75.5178C121.22 68.9188 121.208 62.3188 121.179 55.7198C121.175 54.9928 121.413 54.6328 122.086 54.4218C123.435 53.9998 124.794 53.7918 126.202 54.0128C128.264 54.3348 129.514 55.7328 129.535 57.8188C129.56 60.4098 129.542 63.0008 129.542 65.5908C129.542 73.5268 129.547 81.4628 129.539 89.3978C129.536 92.6438 129.116 95.8188 127.733 98.7988C125.765 103.037 122.398 105.673 117.961 106.857C112.084 108.426 106.181 108.271 100.34 106.573C98.8595 106.142 97.5125 105.409 96.4665 104.225C94.5995 102.111 94.7755 98.7698 96.6705 97.1718Z" fill="#DF2028"/>
<path fill-rule="evenodd" clip-rule="evenodd" d="M25.045 60.0481C26.479 58.8451 27.729 57.6561 29.117 56.6581C33.184 53.7371 37.705 52.5151 42.672 53.5331C48.591 54.7461 52.103 58.5131 53.505 64.2701C53.888 65.8421 54.027 67.5061 54.039 69.1301C54.095 76.4121 54.054 83.6951 54.08 90.9771C54.083 91.6321 53.837 91.9541 53.287 92.2231C51.921 92.8911 50.493 93.1441 48.992 92.9671C46.894 92.7191 45.711 91.3981 45.708 89.2891C45.699 83.2611 45.718 77.2331 45.692 71.2051C45.687 70.0381 45.651 68.8461 45.417 67.7091C44.556 63.5271 42.127 61.2721 37.882 60.6701C35.365 60.3131 32.905 60.6231 30.62 61.7621C26.926 63.6051 25.066 66.6451 25.052 70.7641C25.029 77.3381 25.045 83.9111 25.045 90.4851C25.045 91.9171 25.054 91.9391 23.743 92.4541C22.123 93.0911 20.46 93.2971 18.792 92.6511C17.465 92.1371 16.779 91.1211 16.695 89.7031C16.679 89.4321 16.688 89.1581 16.688 88.8851C16.687 73.2021 16.695 57.5181 16.665 41.8351C16.664 41.0031 16.964 40.6091 17.679 40.3281C19.267 39.7051 20.873 39.3911 22.554 39.8931C24.186 40.3811 25.039 41.5041 25.041 43.2121C25.049 48.5031 25.045 53.7951 25.045 59.0861C25.045 59.3771 25.045 59.6681 25.045 60.0481Z" fill="#DF2028"/>
<path fill-rule="evenodd" clip-rule="evenodd" d="M62.7361 70.1127C62.9591 70.1667 63.1391 70.2337 63.3241 70.2497C66.6911 70.5437 70.0541 70.9807 73.4271 71.0707C75.9181 71.1367 78.4421 70.8887 80.9111 70.5187C82.9371 70.2147 83.7501 68.9927 83.8011 66.9467C83.8671 64.2637 82.3381 62.6247 80.1011 61.5647C76.7191 59.9617 73.1901 59.7967 69.6591 60.9817C65.6151 62.3387 62.8521 66.0367 62.7361 70.1127ZM62.6271 76.1127C62.5771 77.9427 63.0551 79.5877 64.0291 81.0837C65.5541 83.4237 67.8001 84.7647 70.4341 85.4687C74.8391 86.6467 79.2351 86.6067 83.5711 85.1117C85.2011 84.5497 86.5891 83.5967 87.6561 82.2477C89.2961 82.6687 90.3951 84.4547 90.2111 86.3407C90.0131 88.3637 88.8361 89.7367 87.2051 90.7797C85.1141 92.1157 82.7671 92.7297 80.3401 93.0417C75.7741 93.6277 71.2321 93.6157 66.8191 92.0917C59.0721 89.4167 54.3481 82.8657 54.0961 74.5237C53.9821 70.7407 54.4691 67.0587 56.1131 63.6097C58.3941 58.8247 62.1691 55.7097 67.2241 54.2627C73.6191 52.4317 79.8911 52.6747 85.7271 56.1917C90.9661 59.3487 93.2541 65.1467 91.6341 70.6857C90.6691 73.9837 88.2901 75.7677 85.1431 76.6557C80.5531 77.9507 75.8601 78.0227 71.1661 77.4957C68.4881 77.1957 65.8401 76.6227 63.1781 76.1737C63.0191 76.1467 62.8581 76.1377 62.6271 76.1127Z" fill="#DF2028"/>
<mask id="mask0_588_144375" style="mask-type:luminance" maskUnits="userSpaceOnUse" x="129" y="53" width="41" height="41">
<path fill-rule="evenodd" clip-rule="evenodd" d="M129.548 53.1377H169.576V93.1655H129.548V53.1377Z" fill="white"/>
</mask>
<g mask="url(#mask0_588_144375)">
<path fill-rule="evenodd" clip-rule="evenodd" d="M148.782 53.1525C138.409 53.5465 129.956 61.9985 129.563 72.3725C129.553 72.6205 129.548 72.8675 129.548 73.1135C129.523 86.4275 143.043 95.5505 155.546 90.9765L158.118 90.0365C162.214 88.5385 166.81 89.7935 169.576 93.1655V93.1485V73.1515C169.576 61.8395 160.191 52.7195 148.782 53.1525Z" fill="#DF2028"/>
</g>
<path fill-rule="evenodd" clip-rule="evenodd" d="M161.908 72.7078C161.908 79.5268 156.38 85.0538 149.562 85.0538C142.743 85.0538 137.216 79.5268 137.216 72.7078C137.216 65.8888 142.743 60.3618 149.562 60.3618C156.38 60.3618 161.908 65.8888 161.908 72.7078Z" fill="#21DED7"/>
</svg>
