<svg width="60" height="61" viewBox="0 0 60 61" fill="none" xmlns="http://www.w3.org/2000/svg">
<mask id="mask0_588_144349" style="mask-type:luminance" maskUnits="userSpaceOnUse" x="0" y="0" width="7" height="7">
<path fill-rule="evenodd" clip-rule="evenodd" d="M0 0.0449219H6.53113V6.57492H0V0.0449219Z" fill="white"/>
</mask>
<g mask="url(#mask0_588_144349)">
<path fill-rule="evenodd" clip-rule="evenodd" d="M6.53101 3.30992C6.53101 5.11367 5.06851 6.57492 3.26601 6.57492C1.46226 6.57492 -0.000244141 5.11367 -0.000244141 3.30992C-0.000244141 1.50617 1.46226 0.0449219 3.26601 0.0449219C5.06851 0.0449219 6.53101 1.50617 6.53101 3.30992Z" fill="#C076F0"/>
</g>
<path fill-rule="evenodd" clip-rule="evenodd" d="M21.089 6.57492C19.2853 6.57492 17.8228 5.11367 17.8228 3.30992C17.8228 1.50617 19.2853 0.0449219 21.089 0.0449219C22.8915 0.0449219 24.354 1.50617 24.354 3.30992C24.354 5.11367 22.8915 6.57492 21.089 6.57492Z" fill="#C076F0"/>
<path fill-rule="evenodd" clip-rule="evenodd" d="M38.912 6.57492C37.1083 6.57492 35.6458 5.11367 35.6458 3.30992C35.6458 1.50617 37.1083 0.0449219 38.912 0.0449219C40.7145 0.0449219 42.177 1.50617 42.177 3.30992C42.177 5.11367 40.7145 6.57492 38.912 6.57492Z" fill="#C076F0"/>
<mask id="mask1_588_144349" style="mask-type:luminance" maskUnits="userSpaceOnUse" x="0" y="17" width="7" height="8">
<path fill-rule="evenodd" clip-rule="evenodd" d="M0 17.8682H6.53113V24.3982H0V17.8682Z" fill="white"/>
</mask>
<g mask="url(#mask1_588_144349)">
<path fill-rule="evenodd" clip-rule="evenodd" d="M6.53101 21.1332C6.53101 22.9369 5.06851 24.3982 3.26601 24.3982C1.46226 24.3982 -0.000244141 22.9369 -0.000244141 21.1332C-0.000244141 19.3294 1.46226 17.8682 3.26601 17.8682C5.06851 17.8682 6.53101 19.3294 6.53101 21.1332Z" fill="#C076F0"/>
</g>
<path fill-rule="evenodd" clip-rule="evenodd" d="M21.089 24.3982C19.2853 24.3982 17.8228 22.9369 17.8228 21.1332C17.8228 19.3294 19.2853 17.8682 21.089 17.8682C22.8915 17.8682 24.354 19.3294 24.354 21.1332C24.354 22.9369 22.8915 24.3982 21.089 24.3982Z" fill="#C076F0"/>
<path fill-rule="evenodd" clip-rule="evenodd" d="M38.912 24.3982C37.1083 24.3982 35.6458 22.9369 35.6458 21.1332C35.6458 19.3294 37.1083 17.8682 38.912 17.8682C40.7145 17.8682 42.177 19.3294 42.177 21.1332C42.177 22.9369 40.7145 24.3982 38.912 24.3982Z" fill="#C076F0"/>
<mask id="mask2_588_144349" style="mask-type:luminance" maskUnits="userSpaceOnUse" x="0" y="35" width="7" height="8">
<path fill-rule="evenodd" clip-rule="evenodd" d="M0 35.6909H6.53113V42.2209H0V35.6909Z" fill="white"/>
</mask>
<g mask="url(#mask2_588_144349)">
<path fill-rule="evenodd" clip-rule="evenodd" d="M6.53101 38.9559C6.53101 40.7597 5.06851 42.2209 3.26601 42.2209C1.46226 42.2209 -0.000244141 40.7597 -0.000244141 38.9559C-0.000244141 37.1522 1.46226 35.6909 3.26601 35.6909C5.06851 35.6909 6.53101 37.1522 6.53101 38.9559Z" fill="#C076F0"/>
</g>
<path fill-rule="evenodd" clip-rule="evenodd" d="M21.089 42.2209C19.2853 42.2209 17.8228 40.7597 17.8228 38.9559C17.8228 37.1522 19.2853 35.6909 21.089 35.6909C22.8915 35.6909 24.354 37.1522 24.354 38.9559C24.354 40.7597 22.8915 42.2209 21.089 42.2209Z" fill="#C076F0"/>
<path fill-rule="evenodd" clip-rule="evenodd" d="M38.912 42.2209C37.1083 42.2209 35.6458 40.7597 35.6458 38.9559C35.6458 37.1522 37.1083 35.6909 38.912 35.6909C40.7145 35.6909 42.177 37.1522 42.177 38.9559C42.177 40.7597 40.7145 42.2209 38.912 42.2209Z" fill="#C076F0"/>
<mask id="mask3_588_144349" style="mask-type:luminance" maskUnits="userSpaceOnUse" x="0" y="53" width="7" height="8">
<path fill-rule="evenodd" clip-rule="evenodd" d="M0 53.5142H6.53113V60.0442H0V53.5142Z" fill="white"/>
</mask>
<g mask="url(#mask3_588_144349)">
<path fill-rule="evenodd" clip-rule="evenodd" d="M6.53101 56.7792C6.53101 58.5829 5.06851 60.0442 3.26601 60.0442C1.46226 60.0442 -0.000244141 58.5829 -0.000244141 56.7792C-0.000244141 54.9754 1.46226 53.5142 3.26601 53.5142C5.06851 53.5142 6.53101 54.9754 6.53101 56.7792Z" fill="#C076F0"/>
</g>
<path fill-rule="evenodd" clip-rule="evenodd" d="M24.354 56.7792C24.354 58.5829 22.8915 60.0442 21.089 60.0442C19.2853 60.0442 17.8228 58.5829 17.8228 56.7792C17.8228 54.9754 19.2853 53.5142 21.089 53.5142C22.8915 53.5142 24.354 54.9754 24.354 56.7792Z" fill="#C076F0"/>
<path fill-rule="evenodd" clip-rule="evenodd" d="M42.177 56.7792C42.177 58.5829 40.7145 60.0442 38.912 60.0442C37.1083 60.0442 35.6458 58.5829 35.6458 56.7792C35.6458 54.9754 37.1083 53.5142 38.912 53.5142C40.7145 53.5142 42.177 54.9754 42.177 56.7792Z" fill="#C076F0"/>
<path fill-rule="evenodd" clip-rule="evenodd" d="M60 56.7792C60 58.5829 58.5375 60.0442 56.735 60.0442C54.9312 60.0442 53.4688 58.5829 53.4688 56.7792C53.4688 54.9754 54.9312 53.5142 56.735 53.5142C58.5375 53.5142 60 54.9754 60 56.7792Z" fill="#C076F0"/>
<path fill-rule="evenodd" clip-rule="evenodd" d="M56.735 6.57492C54.9312 6.57492 53.4688 5.11367 53.4688 3.30992C53.4688 1.50617 54.9312 0.0449219 56.735 0.0449219C58.5375 0.0449219 60 1.50617 60 3.30992C60 5.11367 58.5375 6.57492 56.735 6.57492Z" fill="#C076F0"/>
<path fill-rule="evenodd" clip-rule="evenodd" d="M56.735 24.3982C54.9312 24.3982 53.4688 22.9369 53.4688 21.1332C53.4688 19.3294 54.9312 17.8682 56.735 17.8682C58.5375 17.8682 60 19.3294 60 21.1332C60 22.9369 58.5375 24.3982 56.735 24.3982Z" fill="#C076F0"/>
<path fill-rule="evenodd" clip-rule="evenodd" d="M56.735 42.2209C54.9312 42.2209 53.4688 40.7597 53.4688 38.9559C53.4688 37.1522 54.9312 35.6909 56.735 35.6909C58.5375 35.6909 60 37.1522 60 38.9559C60 40.7597 58.5375 42.2209 56.735 42.2209Z" fill="#C076F0"/>
</svg>
