<svg width="60" height="90" viewBox="0 0 60 90" fill="none" xmlns="http://www.w3.org/2000/svg">
<path fill-rule="evenodd" clip-rule="evenodd" d="M1.63375 9.795C-1.07188 9.795 -3.26562 7.60313 -3.26562 4.8975C-3.26562 2.19187 -1.07188 0 1.63375 0C4.3375 0 6.53125 2.19187 6.53125 4.8975C6.53125 7.60313 4.3375 9.795 1.63375 9.795Z" fill="#C076F0"/>
<path fill-rule="evenodd" clip-rule="evenodd" d="M28.3679 9.795C25.6623 9.795 23.4685 7.60313 23.4685 4.8975C23.4685 2.19187 25.6623 0 28.3679 0C31.0716 0 33.2654 2.19187 33.2654 4.8975C33.2654 7.60313 31.0716 9.795 28.3679 9.795Z" fill="#C076F0"/>
<path fill-rule="evenodd" clip-rule="evenodd" d="M1.63375 36.5294C-1.07188 36.5294 -3.26562 34.3375 -3.26562 31.6319C-3.26562 28.9262 -1.07188 26.7344 1.63375 26.7344C4.3375 26.7344 6.53125 28.9262 6.53125 31.6319C6.53125 34.3375 4.3375 36.5294 1.63375 36.5294Z" fill="#C076F0"/>
<path fill-rule="evenodd" clip-rule="evenodd" d="M28.3679 36.5294C25.6623 36.5294 23.4685 34.3375 23.4685 31.6319C23.4685 28.9262 25.6623 26.7344 28.3679 26.7344C31.0716 26.7344 33.2654 28.9262 33.2654 31.6319C33.2654 34.3375 31.0716 36.5294 28.3679 36.5294Z" fill="#C076F0"/>
<path fill-rule="evenodd" clip-rule="evenodd" d="M1.63375 63.2642C-1.07188 63.2642 -3.26562 61.0724 -3.26562 58.3667C-3.26562 55.6611 -1.07188 53.4692 1.63375 53.4692C4.3375 53.4692 6.53125 55.6611 6.53125 58.3667C6.53125 61.0724 4.3375 63.2642 1.63375 63.2642Z" fill="#C076F0"/>
<path fill-rule="evenodd" clip-rule="evenodd" d="M28.3679 63.2642C25.6623 63.2642 23.4685 61.0724 23.4685 58.3667C23.4685 55.6611 25.6623 53.4692 28.3679 53.4692C31.0716 53.4692 33.2654 55.6611 33.2654 58.3667C33.2654 61.0724 31.0716 63.2642 28.3679 63.2642Z" fill="#C076F0"/>
<path fill-rule="evenodd" clip-rule="evenodd" d="M6.53125 85.1011C6.53125 87.8067 4.3375 89.9986 1.63375 89.9986C-1.07188 89.9986 -3.26562 87.8067 -3.26562 85.1011C-3.26562 82.3955 -1.07188 80.2036 1.63375 80.2036C4.3375 80.2036 6.53125 82.3955 6.53125 85.1011Z" fill="#C076F0"/>
<path fill-rule="evenodd" clip-rule="evenodd" d="M33.2654 85.1011C33.2654 87.8067 31.0716 89.9986 28.3679 89.9986C25.6623 89.9986 23.4685 87.8067 23.4685 85.1011C23.4685 82.3955 25.6623 80.2036 28.3679 80.2036C31.0716 80.2036 33.2654 82.3955 33.2654 85.1011Z" fill="#C076F0"/>
<path fill-rule="evenodd" clip-rule="evenodd" d="M60 85.1011C60 87.8067 57.8062 89.9986 55.1025 89.9986C52.3969 89.9986 50.2031 87.8067 50.2031 85.1011C50.2031 82.3955 52.3969 80.2036 55.1025 80.2036C57.8062 80.2036 60 82.3955 60 85.1011Z" fill="#C076F0"/>
<path fill-rule="evenodd" clip-rule="evenodd" d="M55.1025 9.795C52.3969 9.795 50.2031 7.60313 50.2031 4.8975C50.2031 2.19187 52.3969 0 55.1025 0C57.8062 0 60 2.19187 60 4.8975C60 7.60313 57.8062 9.795 55.1025 9.795Z" fill="#C076F0"/>
<path fill-rule="evenodd" clip-rule="evenodd" d="M55.1025 36.5294C52.3969 36.5294 50.2031 34.3375 50.2031 31.6319C50.2031 28.9262 52.3969 26.7344 55.1025 26.7344C57.8062 26.7344 60 28.9262 60 31.6319C60 34.3375 57.8062 36.5294 55.1025 36.5294Z" fill="#C076F0"/>
<path fill-rule="evenodd" clip-rule="evenodd" d="M55.1025 63.2642C52.3969 63.2642 50.2031 61.0724 50.2031 58.3667C50.2031 55.6611 52.3969 53.4692 55.1025 53.4692C57.8062 53.4692 60 55.6611 60 58.3667C60 61.0724 57.8062 63.2642 55.1025 63.2642Z" fill="#C076F0"/>
</svg>
