<svg width="21" height="191" viewBox="0 0 21 191" fill="none" xmlns="http://www.w3.org/2000/svg">
<mask id="mask0_588_144335" style="mask-type:luminance" maskUnits="userSpaceOnUse" x="0" y="0" width="24" height="191">
<path fill-rule="evenodd" clip-rule="evenodd" d="M0 0H23.1174V191H0V0Z" fill="white"/>
</mask>
<g mask="url(#mask0_588_144335)">
<path fill-rule="evenodd" clip-rule="evenodd" d="M1.86225 13.6804H5.76979C6.95956 13.6804 8.10954 13.187 8.92925 12.3235L16.8955 3.92346C17.0109 3.8001 17.1781 3.73246 17.3492 3.73246H21.2527C22.2833 3.73246 23.119 2.89683 23.119 1.86623C23.119 0.835625 22.2833 0 21.2527 0H17.3492C16.1594 0 15.0094 0.493417 14.1897 1.3569L6.21944 9.75692C6.10404 9.88027 5.9409 9.94792 5.76979 9.94792H1.86225C0.831646 9.94792 0 10.7835 0 11.8141C0 12.8448 0.831646 13.6804 1.86225 13.6804ZM1.86225 33.3824H5.76979C6.95956 33.3824 8.10954 32.889 8.92925 32.0255L16.8955 23.6255C17.0109 23.5022 17.1781 23.4345 17.3492 23.4345H21.2527C22.2833 23.4345 23.119 22.5989 23.119 21.5683C23.119 20.5377 22.2833 19.702 21.2527 19.702H17.3492C16.1594 19.702 15.0094 20.1955 14.1897 21.0589L6.21944 29.459C6.10404 29.5823 5.9409 29.65 5.76979 29.65H1.86225C0.831646 29.65 0 30.4856 0 31.5162C0 32.5468 0.831646 33.3824 1.86225 33.3824ZM5.76979 53.0845H1.86225C0.831646 53.0845 0 52.2488 0 51.2182C0 50.1876 0.831646 49.352 1.86225 49.352H5.76979C5.9409 49.352 6.10404 49.2844 6.21944 49.161L14.1897 40.761C15.0094 39.8975 16.1594 39.4041 17.3492 39.4041H21.2527C22.2833 39.4041 23.119 40.2397 23.119 41.2703C23.119 42.3009 22.2833 43.1366 21.2527 43.1366H17.3492C17.1781 43.1366 17.0109 43.2042 16.8955 43.3276L8.92925 51.7276C8.10954 52.5911 6.95956 53.0845 5.76979 53.0845ZM1.86225 72.7865H5.76979C6.95956 72.7865 8.10954 72.2931 8.92527 71.4296L16.8955 63.0296C17.0149 62.9062 17.1781 62.8386 17.3492 62.8386H21.2527C22.2833 62.8386 23.119 62.003 23.119 60.9724C23.119 59.9418 22.2833 59.1061 21.2527 59.1061H17.3492C16.1594 59.1061 15.0054 59.6035 14.1897 60.463L6.21944 68.8631C6.10404 68.9864 5.9409 69.0541 5.76979 69.0541H1.86225C0.831646 69.0541 0 69.8897 0 70.9203C0 71.9509 0.831646 72.7865 1.86225 72.7865ZM5.76979 92.4886H1.86225C0.831646 92.4886 0 91.6529 0 90.6223C0 89.5917 0.831646 88.7561 1.86225 88.7561H5.76979C5.9409 88.7561 6.10404 88.6885 6.21944 88.5651L14.1897 80.1651C15.0054 79.3056 16.1594 78.8082 17.3492 78.8082H21.2527C22.2833 78.8082 23.119 79.6438 23.119 80.6744C23.119 81.705 22.2833 82.5406 21.2527 82.5406H17.3492C17.1781 82.5406 17.0149 82.6083 16.8955 82.7317L8.92527 91.1317C8.10954 91.9951 6.95956 92.4886 5.76979 92.4886ZM1.86225 112.191H5.76979C6.95956 112.191 8.10954 111.697 8.92527 110.834L16.8955 102.434C17.0149 102.31 17.1781 102.243 17.3492 102.243H21.2527C22.2833 102.243 23.119 101.407 23.119 100.376C23.119 99.3459 22.2833 98.5102 21.2527 98.5102H17.3492C16.1594 98.5102 15.0054 99.0076 14.1897 99.8671L6.21944 108.267C6.10404 108.391 5.9409 108.458 5.76979 108.458H1.86225C0.831646 108.458 0 109.294 0 110.324C0 111.355 0.831646 112.191 1.86225 112.191ZM5.76979 131.893H1.86225C0.831646 131.893 0 131.057 0 130.026C0 128.996 0.831646 128.16 1.86225 128.16H5.76979C5.9409 128.16 6.10404 128.093 6.21944 127.969L14.1897 119.569C15.0054 118.71 16.1594 118.212 17.3492 118.212H21.2527C22.2833 118.212 23.119 119.048 23.119 120.079C23.119 121.109 22.2833 121.945 21.2527 121.945H17.3492C17.1781 121.945 17.0149 122.012 16.8955 122.136L8.92527 130.536C8.10954 131.399 6.95956 131.893 5.76979 131.893ZM1.86225 151.595H5.76979C6.95956 151.595 8.10954 151.101 8.92527 150.238L16.8955 141.838C17.0149 141.714 17.1781 141.647 17.3492 141.647H21.2527C22.2833 141.647 23.119 140.811 23.119 139.781C23.119 138.75 22.2833 137.914 21.2527 137.914H17.3492C16.1594 137.914 15.0054 138.412 14.1897 139.271L6.21944 147.671C6.10404 147.795 5.9409 147.862 5.76979 147.862H1.86225C0.831646 147.862 0 148.698 0 149.728C0 150.759 0.831646 151.595 1.86225 151.595ZM5.76979 171.298H1.86225C0.831646 171.298 0 170.462 0 169.432C0 168.401 0.831646 167.566 1.86225 167.566H5.76979C5.9409 167.566 6.10404 167.498 6.21944 167.374L14.1897 158.974C15.0054 158.111 16.1554 157.618 17.3492 157.618H21.2527C22.2833 157.618 23.119 158.453 23.119 159.484C23.119 160.514 22.2833 161.35 21.2527 161.35H17.3492C17.1781 161.35 17.0149 161.418 16.8955 161.541L8.92527 169.941C8.10954 170.801 6.95956 171.298 5.76979 171.298ZM1.86225 191H5.76979C6.95956 191 8.10954 190.503 8.92527 189.643L16.8955 181.243C17.0149 181.12 17.1781 181.052 17.3492 181.052H21.2527C22.2833 181.052 23.119 180.216 23.119 179.186C23.119 178.155 22.2833 177.32 21.2527 177.32H17.3492C16.1554 177.32 15.0054 177.813 14.1897 178.677L6.21944 187.077C6.10404 187.2 5.9409 187.268 5.76979 187.268H1.86225C0.831646 187.268 0 188.103 0 189.134C0 190.164 0.831646 191 1.86225 191Z" fill="#C076F0"/>
</g>
</svg>
